<?xml version="1.0" encoding="iso-8859-1"?>
<!-- Uploaded to: SVG Repo, www.svgrepo.com, Generator: SVG Repo Mixer Tools -->
<svg height="800px" width="800px" version="1.1" id="Layer_1" xmlns="http://www.w3.org/2000/svg" xmlns:xlink="http://www.w3.org/1999/xlink" 
	 viewBox="0 0 297.001 297.001" xml:space="preserve">
<g>
	<path style="fill:#3A3A3F;" d="M142.559,124.367c-1.019-4.239-5.287-6.847-9.518-5.827c-3.619,0.87-6.042,4.107-6.039,7.673H104.57
		H82.391c0.003-3.616-2.488-6.878-6.163-7.701c-4.252-0.954-8.473,1.724-9.425,5.976c-0.29,1.294-7.09,32.082-7.09,67.768
		c0,37.016,28.527,47.202,44.254,47.502c0.242,0.005,0.491,0.015,0.728,0.015c15.558,0,44.983-9.931,44.983-47.517
		C149.678,154.397,142.85,125.576,142.559,124.367z"/>
	<path style="fill:#4A4A52;" d="M82.391,126.213c0.003-3.616-2.488-6.878-6.163-7.701c-4.252-0.954-8.473,1.724-9.425,5.976
		c-0.29,1.294-7.09,32.082-7.09,67.768c0,37.016,28.527,47.202,44.254,47.503l0.602-113.546L82.391,126.213L82.391,126.213z"/>
	<path style="fill:#3A3A3F;" d="M142.559,124.367c-1.019-4.239-5.287-6.847-9.518-5.827c-3.619,0.87-6.042,4.107-6.039,7.673H104.57
		l-0.602,113.546c0.242,0.005,0.491,0.014,0.728,0.014c15.558,0,44.983-9.931,44.983-47.517
		C149.678,154.397,142.85,125.576,142.559,124.367z"/>
	<path style="fill:#90A39F;" d="M105.238,0.007C105.057,0.006,104.877,0,104.695,0C48.132,0,2.114,46.018,2.114,102.582
		c0,15.554,3.455,25.589,10.874,31.583c5.192,4.194,11.546,5.703,18.787,5.703c8.548,0,18.333-2.103,28.896-4.373
		c13.224-2.843,28.206-6.061,43.881-6.081c0.048,0,0.095-0.002,0.143-0.002c15.727,0,30.76,3.231,44.024,6.082
		c19.516,4.193,36.365,7.813,47.685-1.329c7.418-5.994,10.874-16.029,10.874-31.583C207.278,46.2,161.553,0.301,105.238,0.007z"/>
	<path style="fill:#A1BEB9;" d="M104.695,0C48.132,0,2.114,46.018,2.114,102.582c0,15.554,3.455,25.589,10.874,31.583
		c5.192,4.194,11.546,5.703,18.787,5.703c8.548,0,18.333-2.103,28.896-4.373c13.224-2.843,28.206-6.061,43.881-6.081l0.686-129.406
		C105.057,0.006,104.877,0,104.695,0z"/>
	<path style="fill:#90A39F;" d="M105.238,0.007l-0.686,129.406c0.048,0,0.095-0.002,0.143-0.002c15.727,0,30.76,3.231,44.024,6.082
		c19.516,4.193,36.365,7.813,47.685-1.329c7.418-5.994,10.874-16.029,10.874-31.583C207.278,46.2,161.553,0.301,105.238,0.007z"/>
	<path style="fill:#C16C17;" d="M204.057,190.529c-3.614-0.885-7.252,0.881-8.885,4.052l-17.834-9.189l-26.019-13.406
		c1.658-3.212,0.938-7.254-1.952-9.669c-3.345-2.792-8.32-2.348-11.116,0.997c-0.914,1.094-22.593,27.194-40.185,61.338
		c-18.338,35.588,4.659,59.34,19.381,66.926c0.092,0.047,0.191,0.094,0.285,0.141c5.632,2.846,13.778,5.282,22.726,5.282
		c14.648,0,31.425-6.532,42.737-28.487c18.663-36.221,26.335-67.149,26.653-68.448C210.881,195.833,208.289,191.565,204.057,190.529
		z"/>
	<path style="fill:#FA961E;" d="M151.319,171.985c1.658-3.212,0.938-7.254-1.952-9.669c-3.345-2.792-8.32-2.348-11.116,0.997
		c-0.914,1.094-22.593,27.194-40.185,61.338c-18.338,35.588,4.659,59.34,19.381,66.926c0.092,0.047,0.191,0.094,0.285,0.141
		l59.607-106.326L151.319,171.985z"/>
	<path style="fill:#C16C17;" d="M204.057,190.529c-3.614-0.885-7.252,0.881-8.885,4.052l-17.834-9.189l-59.607,106.326
		c5.632,2.846,13.778,5.282,22.726,5.282c14.648,0,31.425-6.532,42.737-28.487c18.663-36.221,26.335-67.149,26.653-68.448
		C210.881,195.833,208.289,191.565,204.057,190.529z"/>
	<path style="fill:#DBB365;" d="M243.426,67.506c-2.624-1.646-5.333-3.2-8.136-4.645c-53.912-27.779-120.371-6.516-148.147,47.396
		c-7.589,14.729-9.228,25.885-5.159,35.109c6.214,14.087,24.022,18.901,44.642,24.476c14.151,3.825,30.189,8.161,45.322,15.958
		c1.341,0.691,2.657,1.41,3.962,2.141c13.427,7.521,25.014,17.024,35.34,25.502c14.685,12.058,27.587,22.653,40.872,22.653
		c1.648,0,3.304-0.164,4.969-0.508c9.874-2.04,18.007-9.85,25.595-24.579C309.019,159.901,291.274,97.521,243.426,67.506z"/>
	<path style="fill:#C99E50;" d="M243.426,67.506L175.91,187.94c13.427,7.521,25.014,17.024,35.34,25.502
		c14.685,12.058,27.587,22.653,40.872,22.653c1.648,0,3.304-0.164,4.969-0.508c9.874-2.04,18.007-9.85,25.595-24.579
		C309.019,159.901,291.274,97.521,243.426,67.506z"/>
	<path style="fill:#DBB365;" d="M235.29,62.862c-53.912-27.779-120.371-6.516-148.147,47.396
		c-7.589,14.729-9.228,25.885-5.159,35.109c6.214,14.086,24.022,18.901,44.642,24.476c14.151,3.825,30.189,8.161,45.322,15.958
		c1.34,0.691,2.657,1.41,3.962,2.141l67.516-120.434C240.802,65.86,238.092,64.306,235.29,62.862z"/>
</g>
</svg>