<?xml version="1.0" encoding="iso-8859-1"?>
<svg height="800px" width="800px" version="1.1" id="Layer_1" xmlns="http://www.w3.org/2000/svg"
	xmlns:xlink="http://www.w3.org/1999/xlink" viewBox="0 0 512 512" xml:space="preserve">
	<path style="fill:#F4D853;" d="M318.061,256H193.939c-12.853,0-23.273,10.418-23.273,23.273v124.121
	c0,47.051,38.281,85.333,85.333,85.333s85.333-38.282,85.333-85.333V279.273C341.333,266.418,330.913,256,318.061,256z" />
	<g>
		<path style="fill:#E9A440;" d="M318.061,256H256v232.727c47.053,0,85.333-38.282,85.333-85.333V279.273
		C341.333,266.418,330.913,256,318.061,256z" />
		<path style="fill:#E9A440;" d="M256,23.273c-141.158,0-256,114.84-256,256c0,12.851,10.42,23.273,23.273,23.273h465.455
		c12.853,0,23.273-10.422,23.273-23.273C512,138.113,397.158,23.273,256,23.273z" />
	</g>
	<path style="fill:#E17858;" d="M256,23.273v279.273h232.727c12.853,0,23.273-10.422,23.273-23.273
	C512,138.113,397.158,23.273,256,23.273z" />
</svg>